<?xml version="1.0" standalone="no"?>
<!DOCTYPE svg PUBLIC "-//W3C//DTD SVG 20010904//EN"
 "http://www.w3.org/TR/2001/REC-SVG-20010904/DTD/svg10.dtd">
<svg version="1.0" xmlns="http://www.w3.org/2000/svg"
 width="1621.000000pt" height="280.000000pt" viewBox="0 0 1621.000000 280.000000"
 preserveAspectRatio="xMidYMid meet">

<g transform="translate(0.000000,280.000000) scale(0.100000,-0.100000)"
fill="#000000" stroke="none">
<path d="M2236 2775 c-96 -19 -200 -54 -259 -89 -147 -85 -216 -179 -251 -338
-4 -19 -13 -28 -34 -31 -26 -4 -26 -4 -2 -6 25 -1 25 -1 19 -73 -3 -40 -4 -75
-2 -77 2 -2 3 2 4 10 0 8 7 -15 15 -50 24 -112 94 -172 221 -189 l62 -9 -19
26 c-10 15 -23 46 -30 70 -25 93 -17 333 12 356 7 6 14 21 15 35 4 37 92 114
160 140 36 14 91 24 147 28 l89 5 -5 -49 c-4 -27 -19 -174 -34 -326 -16 -152
-32 -272 -36 -265 -4 7 -5 -2 -2 -19 3 -17 -2 -101 -11 -188 l-17 -157 45 -48
c108 -115 147 -270 117 -461 -6 -36 -13 -72 -15 -80 -4 -13 6 -14 68 -10 l72
5 79 770 c44 424 81 772 82 774 2 2 63 -7 136 -20 150 -26 311 -31 371 -10 88
30 136 102 144 217 l6 73 -64 -21 c-99 -32 -285 -35 -469 -8 -189 29 -499 36
-614 15z"/>
<path d="M1513 2423 c9 -2 23 -2 30 0 6 3 -1 5 -18 5 -16 0 -22 -2 -12 -5z"/>
<path d="M1438 2413 c7 -3 16 -2 19 1 4 3 -2 6 -13 5 -11 0 -14 -3 -6 -6z"/>
<path d="M16080 2368 c-37 -19 -59 -44 -123 -138 -75 -110 -80 -115 -120 -122
-76 -12 -127 -9 -127 6 0 28 -22 28 -49 2 -22 -21 -41 -28 -94 -33 -59 -5 -67
-4 -67 11 0 28 -28 30 -52 2 -21 -23 -34 -27 -128 -36 -96 -9 -107 -12 -129
-37 l-24 -28 209 -24 c199 -22 212 -25 272 -58 34 -19 62 -39 62 -45 0 -6 -45
-86 -101 -178 l-101 -167 -61 -7 c-33 -3 -84 -6 -113 -6 -43 0 -55 -4 -64 -20
-9 -17 -6 -21 26 -35 20 -8 38 -15 39 -15 2 0 24 -9 49 -19 l45 -20 -10 -36
c-17 -61 -7 -70 46 -41 25 14 45 22 45 18 1 -4 27 -36 59 -71 56 -62 59 -63
70 -43 10 18 6 41 -19 127 l-31 104 125 150 c69 82 130 153 136 156 6 4 34
-14 63 -40 46 -41 62 -68 143 -236 l92 -190 20 25 20 26 -26 107 c-24 103 -24
109 -8 137 18 31 10 51 -22 51 -12 0 -20 16 -31 63 -14 58 -13 65 3 93 20 33
14 51 -17 47 -18 -3 -23 6 -39 67 -9 39 -18 75 -18 81 0 6 38 62 85 124 86
115 103 153 91 212 -13 64 -50 74 -126 36z"/>
<path d="M1518 2313 c6 -2 18 -2 25 0 6 3 1 5 -13 5 -14 0 -19 -2 -12 -5z"/>
<path d="M1448 2303 c7 -3 16 -2 19 1 4 3 -2 6 -13 5 -11 0 -14 -3 -6 -6z"/>
<path d="M1638 2193 c6 -2 18 -2 25 0 6 3 1 5 -13 5 -14 0 -19 -2 -12 -5z"/>
<path d="M864 2168 l-19 -23 23 19 c12 11 22 21 22 23 0 8 -8 2 -26 -19z"/>
<path d="M1139 2173 c-13 -16 -12 -17 4 -4 16 13 21 21 13 21 -2 0 -10 -8 -17
-17z"/>
<path d="M1548 2183 c6 -2 18 -2 25 0 6 3 1 5 -13 5 -14 0 -19 -2 -12 -5z"/>
<path d="M1960 2186 c0 -2 8 -10 18 -17 15 -13 16 -12 3 4 -13 16 -21 21 -21
13z"/>
<path d="M1458 2173 c6 -2 18 -2 25 0 6 3 1 5 -13 5 -14 0 -19 -2 -12 -5z"/>
<path d="M2266 2167 c3 -10 9 -15 12 -12 3 3 0 11 -7 18 -10 9 -11 8 -5 -6z"/>
<path d="M1378 2163 c6 -2 18 -2 25 0 6 3 1 5 -13 5 -14 0 -19 -2 -12 -5z"/>
<path d="M1298 2153 c7 -3 16 -2 19 1 4 3 -2 6 -13 5 -11 0 -14 -3 -6 -6z"/>
<path d="M1281 2124 c0 -11 3 -14 6 -6 3 7 2 16 -1 19 -3 4 -6 -2 -5 -13z"/>
<path d="M1691 2104 c0 -11 3 -14 6 -6 3 7 2 16 -1 19 -3 4 -6 -2 -5 -13z"/>
<path d="M1271 2054 c0 -11 3 -14 6 -6 3 7 2 16 -1 19 -3 4 -6 -2 -5 -13z"/>
<path d="M1681 2034 c0 -11 3 -14 6 -6 3 7 2 16 -1 19 -3 4 -6 -2 -5 -13z"/>
<path d="M1261 1984 c0 -11 3 -14 6 -6 3 7 2 16 -1 19 -3 4 -6 -2 -5 -13z"/>
<path d="M1671 1964 c0 -11 3 -14 6 -6 3 7 2 16 -1 19 -3 4 -6 -2 -5 -13z"/>
<path d="M4225 1951 c-45 -11 -68 -26 -108 -70 -106 -117 -159 -345 -159 -681
0 -203 12 -308 39 -327 25 -19 114 -16 142 3 22 16 23 20 16 105 -3 49 -3 130
1 179 l7 90 129 0 129 0 -1 -177 c-1 -98 -1 -184 -1 -191 1 -8 11 -12 29 -10
l27 3 9 120 c11 144 -6 496 -30 635 -32 183 -81 287 -150 316 -36 15 -36 15
-79 5z m87 -86 c47 -47 86 -218 104 -451 l6 -91 -53 -6 c-30 -4 -89 -7 -133
-7 l-78 0 6 98 c10 141 25 266 43 352 26 129 54 157 105 105z"/>
<path d="M9275 1951 c-46 -11 -68 -26 -110 -72 -103 -114 -156 -346 -156 -678
0 -196 13 -309 38 -328 21 -16 104 -17 139 -1 l26 12 -3 111 c-2 60 -2 143 -1
183 l2 72 131 0 130 0 -1 -177 c-1 -98 -1 -184 -1 -191 1 -9 11 -12 29 -10 26
3 27 6 33 68 10 102 10 292 -1 450 -23 336 -80 516 -176 556 -36 15 -36 15
-79 5z m91 -88 c45 -49 84 -218 99 -439 l7 -101 -53 -6 c-30 -4 -89 -7 -131
-7 -71 0 -78 2 -78 19 0 51 23 286 35 366 29 182 63 230 121 168z"/>
<path d="M13142 1950 c-139 -32 -228 -218 -261 -549 -20 -195 -7 -470 24 -518
13 -20 24 -23 73 -23 96 0 95 -2 96 206 l1 179 134 3 134 3 -4 -188 -4 -188
27 -3 c22 -3 29 2 34 23 10 39 -3 600 -15 680 -20 124 -45 217 -76 278 -43 86
-90 114 -163 97z m92 -90 c47 -56 80 -209 100 -466 l6 -71 -62 -7 c-33 -3 -92
-6 -129 -6 l-69 0 0 55 c0 158 50 474 81 511 18 22 45 16 73 -16z"/>
<path d="M1252 1910 c0 -14 2 -19 5 -12 2 6 2 18 0 25 -3 6 -5 1 -5 -13z"/>
<path d="M3265 1922 c-11 -2 -25 -8 -31 -13 -50 -40 -52 -920 -3 -1011 19 -35
79 -16 79 24 0 16 3 16 43 -5 31 -16 63 -23 122 -25 72 -3 86 0 135 25 77 39
113 93 118 178 5 77 -19 136 -75 185 -19 17 -34 32 -32 33 59 38 92 66 113 95
108 157 75 366 -71 444 -98 53 -188 45 -256 -22 l-38 -39 6 54 c6 46 4 55 -11
63 -26 13 -75 20 -99 14z m311 -122 c50 -31 77 -98 77 -184 -1 -91 -29 -161
-89 -215 -44 -41 -56 -46 -133 -55 -53 -6 -81 -28 -65 -54 9 -14 26 -17 85
-17 41 0 84 -5 95 -12 55 -32 74 -171 32 -233 -36 -52 -71 -73 -121 -73 -50 1
-79 14 -119 51 -27 25 -28 29 -28 127 0 128 16 294 40 410 47 232 123 318 226
255z"/>
<path d="M5892 1923 c-12 -3 -26 -12 -31 -22 -47 -87 -46 -915 0 -1003 18 -35
79 -16 79 24 0 15 5 15 53 -7 96 -45 234 -28 305 38 89 83 82 243 -15 327 -19
17 -34 32 -32 34 2 1 22 14 45 28 49 31 99 103 119 172 40 135 -11 279 -121
337 -99 54 -189 46 -256 -20 l-37 -38 6 58 c6 57 5 58 -21 63 -49 11 -71 13
-94 9z m314 -122 c75 -46 103 -200 55 -306 -39 -88 -108 -145 -175 -145 -73 0
-119 -38 -80 -67 14 -11 36 -13 85 -10 50 4 72 2 88 -9 70 -49 75 -195 9 -262
-29 -30 -87 -55 -111 -47 -7 2 -24 6 -39 9 -15 4 -43 20 -63 37 l-35 31 0 98
c0 191 34 435 76 550 46 124 114 167 190 121z"/>
<path d="M6653 1923 c-27 -5 -30 -14 -45 -126 -18 -128 -15 -703 3 -816 16
-94 30 -113 73 -93 25 11 25 11 20 124 -5 110 -4 112 13 88 43 -63 121 -128
179 -150 49 -18 74 -21 150 -18 57 2 98 9 108 17 19 16 21 56 4 68 -7 4 -62 8
-123 8 -102 0 -114 2 -162 29 -58 32 -103 88 -127 160 -9 27 -15 50 -14 51 2
1 47 7 101 13 197 22 323 116 358 268 27 119 -22 242 -120 301 -100 60 -193
53 -270 -20 l-33 -32 7 52 c6 44 4 53 -12 61 -24 13 -82 21 -110 15z m328
-130 c45 -39 69 -96 69 -171 0 -74 -21 -122 -77 -178 -46 -45 -142 -91 -207
-100 l-49 -7 7 69 c19 178 73 343 128 389 40 34 87 33 129 -2z"/>
<path d="M12175 1923 c-11 -3 -25 -9 -31 -14 -50 -40 -52 -920 -3 -1011 5 -10
20 -18 33 -18 40 0 49 23 44 103 -3 39 -2 85 1 100 l6 29 32 -46 c69 -98 167
-140 310 -134 75 3 87 6 104 27 22 26 22 30 9 51 -7 12 -33 15 -127 15 -101 0
-124 4 -158 22 -70 37 -120 102 -143 184 l-10 37 82 7 c141 12 241 56 309 136
117 137 96 346 -44 435 -94 59 -203 53 -272 -16 l-38 -38 7 58 c6 51 4 59 -12
63 -37 11 -79 15 -99 10z m309 -122 c40 -25 64 -67 77 -134 18 -101 -19 -184
-113 -253 -49 -37 -148 -74 -195 -74 -25 0 -25 1 -18 62 30 256 102 418 185
418 18 0 47 -9 64 -19z"/>
<path d="M1662 1890 c0 -14 2 -19 5 -12 2 6 2 18 0 25 -3 6 -5 1 -5 -13z"/>
<path d="M4684 1896 c-18 -14 -19 -29 -19 -348 0 -418 19 -618 62 -656 32 -29
39 -27 193 35 131 53 140 58 140 85 0 33 -28 31 -130 -11 -54 -22 -104 -41
-109 -41 -21 0 -9 704 14 878 6 41 5 43 -29 57 -45 19 -97 19 -122 1z"/>
<path d="M7729 1904 c-23 -7 -29 -44 -36 -234 -9 -237 25 -711 55 -767 20 -37
56 -37 155 3 203 81 220 93 182 124 -13 11 -33 6 -121 -30 -57 -23 -108 -40
-112 -36 -11 12 -6 521 8 725 10 156 10 185 -2 197 -15 15 -100 27 -129 18z"/>
<path d="M8228 1904 c-9 -3 -19 -13 -23 -22 -4 -9 -9 -110 -12 -224 -9 -303
26 -731 61 -766 25 -26 73 -17 205 37 143 58 163 76 119 104 -11 8 -42 -1
-117 -33 -56 -24 -104 -40 -109 -36 -11 12 -6 582 7 755 10 128 10 157 -2 168
-14 14 -100 25 -129 17z"/>
<path d="M10598 1900 c-86 -14 -128 -34 -128 -63 0 -13 6 -31 13 -41 12 -16
18 -16 82 -3 39 8 71 13 72 12 2 -1 -2 -74 -8 -163 -20 -310 22 -680 81 -712
29 -16 75 -12 92 8 14 15 15 40 8 177 -5 119 2 664 9 694 1 2 46 1 100 -2 107
-7 111 -5 111 48 0 44 -21 50 -204 52 -94 1 -197 -2 -228 -7z"/>
<path d="M11540 1899 c-89 -14 -114 -27 -118 -64 -4 -51 10 -61 63 -47 25 7
58 12 73 12 l28 0 -8 -77 c-25 -282 8 -700 61 -773 20 -28 68 -38 100 -20 20
10 20 17 14 218 -3 114 -2 310 2 436 l7 229 99 -6 c93 -6 99 -5 110 14 14 26
4 65 -18 74 -28 12 -340 15 -413 4z"/>
<path d="M14595 1891 c-124 -33 -215 -145 -215 -266 0 -57 30 -135 67 -176 45
-49 89 -73 168 -89 77 -15 129 -49 156 -102 17 -34 20 -55 17 -119 -3 -67 -7
-83 -33 -121 -42 -59 -91 -83 -144 -68 -70 19 -111 95 -111 205 0 72 -18 107
-47 89 -15 -10 -18 -25 -17 -91 1 -68 5 -88 30 -133 36 -68 98 -116 160 -126
62 -9 143 10 193 47 158 114 156 331 -4 441 -42 28 -133 58 -179 58 -47 0 -83
26 -101 75 -21 55 -15 108 21 183 34 69 80 104 147 110 68 5 99 -17 102 -74 3
-52 3 -51 20 -58 22 -8 55 29 55 62 -1 52 -35 109 -80 132 -46 23 -155 35
-205 21z"/>
<path d="M5183 1880 c-32 -13 -38 -69 -37 -360 1 -224 11 -395 31 -523 7 -46
40 -72 78 -63 25 6 25 7 25 119 0 117 12 344 31 630 10 142 10 171 -2 182 -18
17 -98 27 -126 15z"/>
<path d="M7394 1880 c-29 -11 -34 -63 -34 -360 1 -326 20 -540 51 -571 41 -41
95 -10 84 48 -6 36 8 385 28 681 7 95 10 178 6 183 -6 11 -71 29 -99 28 -8 0
-24 -4 -36 -9z"/>
<path d="M8713 1880 c-18 -8 -22 -20 -28 -97 -11 -123 2 -630 18 -737 10 -64
19 -92 32 -102 24 -18 46 -18 70 -1 15 11 17 22 11 56 -7 44 7 374 28 671 13
183 13 195 -8 203 -30 12 -102 16 -123 7z"/>
<path d="M955 1824 c-3 -25 -3 -50 2 -55 5 -5 42 -13 83 -19 135 -19 228 -78
276 -176 91 -187 -80 -451 -307 -471 l-61 -6 6 29 c10 51 56 396 56 423 0 26
0 26 -78 24 -42 0 -131 3 -197 7 -65 5 -121 8 -122 6 -2 -1 -51 -348 -111
-769 l-108 -767 202 0 c184 0 203 2 208 18 2 9 33 218 67 464 l63 448 56 2
c163 6 236 -16 299 -88 85 -96 114 -280 71 -450 -36 -142 -102 -204 -218 -204
-68 0 -117 16 -169 56 l-33 25 -11 -28 c-6 -15 -9 -58 -7 -95 5 -84 24 -113
102 -152 50 -25 72 -30 162 -34 188 -8 297 28 404 137 108 110 164 246 177
426 8 120 -9 212 -54 298 -57 108 -138 171 -267 207 l-59 16 44 26 c25 15 66
49 92 77 26 27 47 45 48 38 1 -7 5 2 9 18 5 17 19 57 31 90 69 193 -70 402
-318 476 -24 7 -43 16 -43 21 0 5 -4 6 -10 3 -5 -3 -36 -2 -67 4 -32 5 -92 12
-134 15 l-77 7 -7 -47z"/>
<path d="M9742 1858 c-31 -38 -34 -666 -3 -823 14 -72 19 -82 52 -95 24 -10
33 -10 52 3 24 15 24 16 32 309 4 161 10 325 14 363 l6 70 153 -330 c85 -181
161 -336 170 -342 25 -20 61 -15 87 12 24 24 25 27 25 187 0 90 7 262 15 383
8 121 15 227 15 237 0 33 -124 53 -153 24 -16 -16 -36 -201 -46 -429 l-6 -141
-130 278 c-71 152 -136 282 -143 289 -22 18 -126 22 -140 5z"/>
<path d="M13612 1862 c-34 -22 -40 -645 -9 -820 14 -78 27 -97 69 -107 20 -5
32 -1 48 15 19 19 21 29 16 64 -8 46 12 585 23 630 6 26 17 7 103 -175 53
-112 120 -256 148 -319 29 -63 60 -123 68 -132 18 -22 60 -23 88 -3 20 13 21
27 28 227 4 117 13 299 21 403 11 161 11 192 -1 204 -19 20 -126 27 -141 9
-16 -19 -34 -193 -42 -401 l-6 -178 -134 286 c-107 227 -140 289 -159 296 -29
11 -103 12 -120 1z"/>
<path d="M681 1849 c-1 -10 -23 -20 -70 -32 -80 -19 -228 -81 -308 -129 -31
-18 -91 -66 -134 -106 -103 -97 -152 -189 -157 -298 -9 -174 67 -254 266 -279
28 -4 52 -4 52 -1 0 3 -9 23 -21 45 -25 49 -38 169 -27 260 17 146 128 289
282 365 44 22 94 40 112 40 18 1 30 5 27 9 -3 4 -8 38 -13 75 -4 37 -8 60 -9
51z"/>
<path d="M1651 1814 c0 -11 3 -14 6 -6 3 7 2 16 -1 19 -3 4 -6 -2 -5 -13z"/>
<path d="M1939 1813 c-13 -16 -12 -17 4 -4 9 7 17 15 17 17 0 8 -8 3 -21 -13z"/>
<path d="M2199 1753 c-13 -16 -12 -17 4 -4 9 7 17 15 17 17 0 8 -8 3 -21 -13z"/>
<path d="M1641 1744 c0 -11 3 -14 6 -6 3 7 2 16 -1 19 -3 4 -6 -2 -5 -13z"/>
<path d="M1864 1738 l-19 -23 23 19 c21 18 27 26 19 26 -2 0 -12 -10 -23 -22z"/>
<path d="M1631 1674 c0 -11 3 -14 6 -6 3 7 2 16 -1 19 -3 4 -6 -2 -5 -13z"/>
<path d="M1673 1663 c9 -2 23 -2 30 0 6 3 -1 5 -18 5 -16 0 -22 -2 -12 -5z"/>
<path d="M2078 1653 c7 -3 16 -2 19 1 4 3 -2 6 -13 5 -11 0 -14 -3 -6 -6z"/>
<path d="M1211 1624 c0 -11 3 -14 6 -6 3 7 2 16 -1 19 -3 4 -6 -2 -5 -13z"/>
<path d="M1201 1554 c0 -11 3 -14 6 -6 3 7 2 16 -1 19 -3 4 -6 -2 -5 -13z"/>
<path d="M1688 1543 c23 -2 59 -2 80 0 20 2 1 4 -43 4 -44 0 -61 -2 -37 -4z"/>
<path d="M1191 1484 c0 -11 3 -14 6 -6 3 7 2 16 -1 19 -3 4 -6 -2 -5 -13z"/>
<path d="M1181 1414 c0 -11 3 -14 6 -6 3 7 2 16 -1 19 -3 4 -6 -2 -5 -13z"/>
<path d="M1171 1344 c0 -11 3 -14 6 -6 3 7 2 16 -1 19 -3 4 -6 -2 -5 -13z"/>
<path d="M1161 1274 c0 -11 3 -14 6 -6 3 7 2 16 -1 19 -3 4 -6 -2 -5 -13z"/>
<path d="M2052 1215 c0 -16 2 -22 5 -12 2 9 2 23 0 30 -3 6 -5 -1 -5 -18z"/>
<path d="M15250 1158 c-353 -298 -767 -563 -1065 -681 -102 -40 -234 -70 -270
-61 -64 16 -139 141 -195 325 -17 57 -34 111 -37 119 -7 21 -39 -63 -70 -180
-31 -120 -34 -242 -8 -320 38 -115 148 -190 278 -190 264 0 704 286 1192 775
145 145 286 297 273 294 -1 0 -46 -37 -98 -81z"/>
<path d="M1151 1194 c0 -11 3 -14 6 -6 3 7 2 16 -1 19 -3 4 -6 -2 -5 -13z"/>
<path d="M1561 1174 c0 -11 3 -14 6 -6 3 7 2 16 -1 19 -3 4 -6 -2 -5 -13z"/>
<path d="M1551 1104 c0 -11 3 -14 6 -6 3 7 2 16 -1 19 -3 4 -6 -2 -5 -13z"/>
<path d="M2052 1095 c0 -16 2 -22 5 -12 2 9 2 23 0 30 -3 6 -5 -1 -5 -18z"/>
<path d="M1111 914 c0 -11 3 -14 6 -6 3 7 2 16 -1 19 -3 4 -6 -2 -5 -13z"/>
<path d="M1101 844 c0 -11 3 -14 6 -6 3 7 2 16 -1 19 -3 4 -6 -2 -5 -13z"/>
<path d="M1091 774 c0 -11 3 -14 6 -6 3 7 2 16 -1 19 -3 4 -6 -2 -5 -13z"/>
<path d="M1081 704 c0 -11 3 -14 6 -6 3 7 2 16 -1 19 -3 4 -6 -2 -5 -13z"/>
<path d="M2229 673 c-13 -16 -12 -17 4 -4 16 13 21 21 13 21 -2 0 -10 -8 -17
-17z"/>
<path d="M1072 630 c0 -14 2 -19 5 -12 2 6 2 18 0 25 -3 6 -5 1 -5 -13z"/>
<path d="M1998 573 c7 -3 16 -2 19 1 4 3 -2 6 -13 5 -11 0 -14 -3 -6 -6z"/>
<path d="M1893 563 c9 -2 23 -2 30 0 6 3 -1 5 -18 5 -16 0 -22 -2 -12 -5z"/>
<path d="M3761 478 c-90 -25 -131 -95 -131 -223 0 -96 12 -144 47 -185 39 -47
79 -64 153 -64 135 0 200 75 200 232 0 47 -5 103 -12 125 -30 100 -139 149
-257 115z m118 -63 c18 -37 20 -295 2 -338 -22 -55 -84 -49 -101 11 -17 54 -9
324 9 346 23 28 73 17 90 -19z"/>
<path d="M5477 476 c-86 -32 -120 -97 -120 -228 0 -75 3 -93 29 -144 38 -75
81 -99 174 -98 144 1 209 90 198 274 -8 136 -66 200 -188 207 -31 2 -72 -3
-93 -11z m129 -61 c17 -41 20 -288 3 -332 -19 -51 -68 -59 -96 -16 -27 40 -27
316 0 356 13 19 26 27 48 27 25 0 32 -6 45 -35z"/>
<path d="M6526 476 c-49 -18 -91 -58 -117 -114 -29 -60 -30 -179 -2 -244 46
-102 176 -145 277 -93 27 14 31 14 38 0 5 -8 18 -15 28 -15 19 0 20 8 20 125
l0 125 -95 0 c-88 0 -95 -1 -95 -20 0 -16 7 -20 35 -20 l35 0 0 -73 c0 -86
-18 -115 -65 -103 -41 10 -55 58 -55 188 0 128 11 181 43 203 51 36 117 -3
117 -70 0 -19 2 -35 5 -35 18 0 55 26 55 39 0 24 -36 78 -63 96 -35 23 -114
28 -161 11z"/>
<path d="M3170 460 c0 -16 8 -19 58 -22 l57 -3 3 -213 2 -212 70 0 70 0 0 215
0 215 55 0 c48 0 55 2 55 20 0 19 -7 20 -185 20 -177 0 -185 -1 -185 -20z"/>
<path d="M4162 293 c3 -212 11 -238 78 -270 51 -24 156 -23 201 3 61 35 69 65
69 272 0 175 -1 182 -20 182 -19 0 -20 -7 -20 -175 0 -194 -8 -227 -58 -246
-38 -14 -89 -3 -104 24 -9 15 -14 84 -16 210 l-4 187 -65 0 -65 0 4 -187z"/>
<path d="M4660 245 l0 -235 65 0 65 0 0 115 c0 113 0 115 23 115 47 0 67 -36
67 -122 0 -107 1 -108 82 -108 68 0 70 1 64 23 -3 12 -11 53 -16 91 -11 71
-27 101 -62 112 -18 5 -16 8 13 26 49 28 59 46 59 98 0 38 -5 51 -28 73 -40
38 -80 47 -214 47 l-118 0 0 -235z m206 180 c27 -18 37 -65 23 -104 -8 -23
-20 -33 -46 -40 -20 -6 -40 -8 -45 -5 -4 3 -8 41 -8 85 l0 79 28 0 c15 0 37
-7 48 -15z"/>
<path d="M5890 245 l0 -235 70 0 70 0 0 115 c0 106 1 115 19 115 10 0 29 -8
41 -18 19 -15 23 -31 27 -93 7 -125 3 -119 84 -119 64 0 70 2 64 18 -4 9 -11
46 -16 82 -13 90 -17 99 -52 120 l-31 19 26 10 c60 23 88 108 52 160 -33 46
-87 61 -226 61 l-128 0 0 -235z m220 175 c25 -25 27 -90 3 -118 -10 -11 -33
-23 -50 -27 l-33 -7 0 86 0 86 30 0 c17 0 39 -9 50 -20z"/>
<path d="M6940 263 c-34 -120 -65 -226 -68 -235 -3 -14 2 -18 21 -18 22 0 27
7 38 50 l13 50 72 0 73 0 10 -37 c6 -21 11 -44 11 -50 0 -9 20 -13 69 -13 l68
0 -54 198 c-29 108 -58 214 -63 235 l-11 37 -58 0 -58 0 -63 -217z m109 1 c11
-44 21 -86 21 -92 0 -8 -20 -12 -56 -12 -40 0 -54 3 -51 13 3 6 15 51 28 99
13 48 26 84 30 80 3 -4 16 -43 28 -88z"/>
<path d="M7350 245 l0 -235 25 0 25 0 0 148 1 147 96 -148 96 -147 48 0 49 0
0 235 c0 227 -1 235 -20 235 -18 0 -20 -8 -22 -157 l-3 -158 -104 158 -103
157 -44 0 -44 0 0 -235z"/>
<path d="M7840 245 l0 -235 70 0 70 0 0 235 0 235 -70 0 -70 0 0 -235z"/>
<path d="M8130 460 c0 -19 7 -20 90 -20 50 0 90 -3 90 -6 0 -3 -49 -90 -110
-194 -60 -104 -110 -199 -110 -210 0 -19 6 -20 181 -20 l180 0 -3 23 c-3 21
-8 22 -105 25 l-101 3 109 187 c60 103 109 197 109 210 0 22 -1 22 -165 22
-158 0 -165 -1 -165 -20z"/>
<path d="M8580 245 l0 -235 166 0 165 0 -3 22 c-3 22 -8 23 -101 26 l-98 3 3
92 3 92 68 3 c59 3 67 5 67 22 0 18 -7 20 -70 20 l-71 0 3 73 3 72 83 3 c74 3
82 5 82 22 0 19 -8 20 -150 20 l-150 0 0 -235z"/>
<path d="M9020 245 l0 -235 65 0 65 0 0 115 c0 113 0 115 23 115 49 0 61 -21
68 -118 3 -49 9 -94 13 -101 4 -6 36 -11 76 -11 68 0 69 1 61 23 -5 12 -12 47
-15 77 -10 77 -23 106 -57 122 l-29 14 35 17 c22 10 42 31 52 52 15 32 16 40
3 77 -12 33 -25 47 -59 65 -40 21 -58 23 -173 23 l-128 0 0 -235z m217 169
c21 -22 25 -32 20 -66 -7 -50 -22 -66 -67 -70 l-35 -3 -3 83 -3 82 31 0 c20 0
40 -9 57 -26z"/>
</g>
</svg>
